Coordinates
version=1
nRows=37
nColumns=38
inDegrees=no

Units are S.I. units (second, meters, Newtons, ...)
If the header above contains a line with 'inDegrees', this indicates whether rotational values are in degrees (yes) or radians (no).

endheader
time	pelvis_tilt	pelvis_list	pelvis_rotation	pelvis_tx	pelvis_ty	pelvis_tz	hip_flexion_r	hip_adduction_r	hip_rotation_r	knee_angle_r	ankle_angle_r	subtalar_angle_r	mtp_angle_r	hip_flexion_l	hip_adduction_l	hip_rotation_l	knee_angle_l	ankle_angle_l	subtalar_angle_l	mtp_angle_l	lumbar_extension	lumbar_bending	lumbar_rotation	arm_flex_r	arm_add_r	arm_rot_r	elbow_flex_r	pro_sup_r	wrist_flex_r	wrist_dev_r	arm_flex_l	arm_add_l	arm_rot_l	elbow_flex_l	pro_sup_l	wrist_flex_l	wrist_dev_l
5.625	0.132985	-0.0061071	-3.26464	-0.218506	0.996618	0.00519702	0.276889	-0.00617151	-0.19898	0.27403	0.112915	0	0	0.513144	-0.218866	-0.250966	0.743058	0.0132585	0	0	-0.123589	0.0267006	0.0658039	0.262478	-0.581128	1.16958	0.863621	0.882619	0	0	0.452565	-0.548153	0.543387	1.58101	1.3344	0	0
5.63499	0.130899	-0.00848108	-3.25997	-0.216834	0.996645	0.00201345	0.274252	-0.00553106	-0.203015	0.270614	0.111446	0	0	0.539972	-0.225586	-0.24051	0.78658	-0.00654416	0	0	-0.131838	0.0254144	0.0676017	0.255976	-0.582752	1.17322	0.849963	0.868611	0	0	0.442077	-0.546483	0.530855	1.57886	1.33155	0	0
5.64498	0.128095	-0.0110718	-3.2551	-0.215231	0.996733	-0.000999049	0.270956	-0.00543509	-0.207024	0.267434	0.110048	0	0	0.566684	-0.231207	-0.229501	0.832708	-0.0226601	0	0	-0.140596	0.0238605	0.0694094	0.24959	-0.584381	1.17707	0.836069	0.854374	0	0	0.432305	-0.544151	0.519158	1.57689	1.32958	0	0
5.65497	0.124751	-0.0138739	-3.25023	-0.213713	0.99687	-0.00384672	0.267261	-0.00584608	-0.210879	0.264626	0.108749	0	0	0.59335	-0.23577	-0.218127	0.882055	-0.0341041	0	0	-0.149594	0.0220594	0.0711679	0.243488	-0.585947	1.18151	0.821868	0.839849	0	0	0.422949	-0.541278	0.508014	1.57535	1.32862	0	0
5.66496	0.121079	-0.0168865	-3.24555	-0.212292	0.997044	-0.0065407	0.26346	-0.00672267	-0.214448	0.262317	0.107575	0	0	0.620076	-0.239358	-0.206586	0.935182	-0.0402995	0	0	-0.158529	0.0200212	0.0728124	0.237821	-0.587378	1.18685	0.807312	0.825093	0	0	0.413661	-0.538003	0.497106	1.57454	1.3287	0	0
5.67496	0.117307	-0.0201167	-3.24128	-0.210977	0.997237	-0.00909563	0.25986	-0.00802529	-0.217604	0.260618	0.106548	0	0	0.64698	-0.242079	-0.195076	0.992496	-0.0411845	0	0	-0.167089	0.0177417	0.0742764	0.232701	-0.588606	1.19329	0.792398	0.810322	0	0	0.404078	-0.534479	0.486126	1.5747	1.32974	0	0
5.68495	0.11366	-0.0235783	-3.23757	-0.209776	0.997435	-0.0115271	0.256753	-0.00972022	-0.220235	0.259619	0.105691	0	0	0.674152	-0.244037	-0.183772	1.05418	-0.0372041	0	0	-0.174984	0.0152034	0.0755144	0.228146	-0.589585	1.20077	0.777199	0.795904	0	0	0.393894	-0.53085	0.474843	1.57605	1.33145	0	0
5.69494	0.110336	-0.0272902	-3.23455	-0.208691	0.997628	-0.0138492	0.254386	-0.0117843	-0.222263	0.259376	0.105025	0	0	0.701626	-0.24531	-0.172812	1.12016	-0.0291656	0	0	-0.181972	0.0123801	0.0764835	0.224105	-0.590295	1.20908	0.761857	0.782162	0	0	0.382873	-0.527248	0.4631	1.57872	1.33353	0	0
5.70493	0.107482	-0.0312716	-3.23228	-0.207722	0.997804	-0.0160724	0.252936	-0.0142048	-0.223654	0.259912	0.104569	0	0	0.729366	-0.245934	-0.162279	1.19013	-0.0180203	0	0	-0.187891	0.00924448	0.0771332	0.220479	-0.590734	1.21787	0.746571	0.769348	0	0	0.370866	-0.523784	0.450807	1.58281	1.33571	0	0
5.71492	0.105186	-0.0355351	-3.23076	-0.206864	0.997954	-0.0182033	0.252487	-0.0169737	-0.224416	0.261211	0.104337	0	0	0.75725	-0.245898	-0.1522	1.26353	-0.00467363	0	0	-0.192673	0.00577639	0.0774016	0.217137	-0.590917	1.22668	0.731581	0.75764	0	0	0.357814	-0.520546	0.437944	1.58835	1.33774	0	0
5.72491	0.10347	-0.0400849	-3.22993	-0.206107	0.998074	-0.0202448	0.253033	-0.0200854	-0.2246	0.263215	0.104337	0	0	0.785079	-0.245153	-0.142556	1.33964	0.0101059	0	0	-0.196342	0.00196714	0.0772171	0.213929	-0.590874	1.23497	0.717156	0.747135	0	0	0.343756	-0.5176	0.424557	1.59529	1.33944	0	0
5.7349	0.102304	-0.0449195	-3.22966	-0.20544	0.998166	-0.022197	0.254491	-0.0235387	-0.22429	0.265834	0.104567	0	0	0.812592	-0.243614	-0.133299	1.41757	0.0256856	0	0	-0.199006	-0.00218145	0.0765084	0.210685	-0.590649	1.24216	0.703576	0.737894	0	0	0.328821	-0.514981	0.410758	1.6035	1.34069	0	0
5.74489	0.101617	-0.0500368	-3.22979	-0.204847	0.998234	-0.0240576	0.256719	-0.0273418	-0.223601	0.268958	0.105018	0	0	0.839485	-0.241173	-0.124373	1.49628	0.0415281	0	0	-0.200827	-0.00666177	0.0752215	0.207209	-0.590301	1.24763	0.691111	0.729992	0	0	0.313238	-0.512692	0.396739	1.61279	1.34137	0	0
5.75488	0.101299	-0.0554385	-3.23013	-0.204312	0.998295	-0.0258231	0.259518	-0.0315124	-0.222656	0.272453	0.10567	0	0	0.86541	-0.237711	-0.115738	1.57464	0.0571477	0	0	-0.202026	-0.0114675	0.0733515	0.203254	-0.589902	1.25067	0.680032	0.723622	0	0	0.297347	-0.510701	0.382799	1.62284	1.34132	0	0
5.76488	0.101219	-0.0611402	-3.23048	-0.203818	0.998368	-0.0274907	0.262668	-0.0360843	-0.22158	0.276178	0.106498	0	0	0.889996	-0.233101	-0.107391	1.6514	0.0720813	0	0	-0.202844	-0.0166055	0.0709138	0.198608	-0.589512	1.25072	0.670556	0.718864	0	0	0.281536	-0.508961	0.369271	1.63327	1.3404	0	0
5.77487	0.101237	-0.0671774	-3.23067	-0.203351	0.99848	-0.0290591	0.265934	-0.0411106	-0.220486	0.279991	0.107471	0	0	0.912863	-0.227225	-0.099381	1.72529	0.0858725	0	0	-0.203525	-0.0221045	0.0679482	0.193105	-0.589162	1.24737	0.662831	0.715715	0	0	0.266215	-0.50741	0.356502	1.64369	1.3385	0	0
5.78486	0.101206	-0.0736084	-3.23052	-0.202897	0.998659	-0.0305296	0.269085	-0.0466643	-0.219464	0.283751	0.108551	0	0	0.933635	-0.219975	-0.0918108	1.79503	0.0980665	0	0	-0.204308	-0.0280209	0.0645198	0.186633	-0.588857	1.24039	0.656932	0.714121	0	0	0.251797	-0.505989	0.344834	1.65366	1.33549	0	0
5.79485	0.100984	-0.0805125	-3.22994	-0.202447	0.99894	-0.031906	0.271895	-0.0528349	-0.218583	0.28732	0.109694	0	0	0.951962	-0.211265	-0.0848373	1.85934	0.108206	0	0	-0.205417	-0.0344369	0.0607136	0.179148	-0.588573	1.22975	0.652856	0.714001	0	0	0.238663	-0.504637	0.334572	1.66275	1.33132	0	0
5.80484	0.100432	-0.0879845	-3.22884	-0.201995	0.999355	-0.0331956	0.274153	-0.0597231	-0.217883	0.290565	0.110852	0	0	0.967537	-0.201037	-0.0786585	1.9171	0.11583	0	0	-0.207052	-0.041456	0.0566219	0.170687	-0.588256	1.21563	0.650513	0.715254	0	0	0.227136	-0.503309	0.325959	1.67059	1.32596	0	0
5.81483	0.0994122	-0.0961199	-3.22721	-0.201539	0.999934	-0.0344086	0.275653	-0.0674252	-0.217382	0.29336	0.111971	0	0	0.980117	-0.18927	-0.0734983	1.96733	0.120479	0	0	-0.209396	-0.0491892	0.0523532	0.16135	-0.587838	1.19837	0.649743	0.717785	0	0	0.217482	-0.50197	0.319182	1.67686	1.31947	0	0
5.82482	0.0977952	-0.104996	-3.22508	-0.20108	1.0007	-0.0355576	0.276212	-0.0760164	-0.217073	0.295595	0.112995	0	0	0.989567	-0.176002	-0.0695799	2.0094	0.121714	0	0	-0.212598	-0.0577335	0.0480105	0.151331	-0.587248	1.17853	0.650318	0.721439	0	0	0.209869	-0.5006	0.314324	1.68132	1.31203	0	0
5.83481	0.0954798	-0.114646	-3.22253	-0.20062	1.00166	-0.0366563	0.27569	-0.0855247	-0.216942	0.297198	0.113873	0	0	0.995922	-0.161348	-0.0670843	2.0431	0.119148	0	0	-0.216741	-0.0671385	0.0436684	0.14093	-0.586421	1.15693	0.65195	0.725961	0	0	0.204331	-0.499195	0.31132	1.68387	1.30403	0	0
5.8448	0.0924039	-0.125016	-3.21967	-0.200164	1.0028	-0.0377177	0.274011	-0.0958926	-0.216975	0.298149	0.114563	0	0	0.999459	-0.145528	-0.0660937	2.06887	0.112509	0	0	-0.221816	-0.077362	0.0393503	0.130594	-0.585319	1.13479	0.654304	0.73085	0	0	0.200717	-0.497763	0.309897	1.6846	1.2962	0	0
5.8548	0.0885512	-0.135935	-3.21663	-0.199714	1.00408	-0.038752	0.271166	-0.106957	-0.217192	0.298496	0.115048	0	0	1.00077	-0.128878	-0.0665312	2.08768	0.101657	0	0	-0.227709	-0.0882341	0.0350483	0.120826	-0.58397	1.11343	0.657044	0.735613	0	0	0.19874	-0.496314	0.309634	1.68372	1.28945	0	0
5.86479	0.0839977	-0.147126	-3.21351	-0.199269	1.00544	-0.0397662	0.267257	-0.118437	-0.217643	0.298332	0.115319	0	0	1.00064	-0.111831	-0.068156	2.10072	0.0865773	0	0	-0.234202	-0.0994534	0.0307144	0.112158	-0.582456	1.09429	0.659869	0.739832	0	0	0.198005	-0.494859	0.31	1.68162	1.28474	0	0
5.87478	0.0789326	-0.158172	-3.21034	-0.198822	1.00683	-0.040762	0.262505	-0.129898	-0.218431	0.297771	0.115379	0	0	1.00001	-0.0949016	-0.0705326	2.10929	0.06741	0	0	-0.240975	-0.110545	0.0262893	0.105107	-0.580931	1.07876	0.662545	0.743247	0	0	0.198061	-0.493393	0.310435	1.67874	1.28293	0	0
5.88477	0.0736551	-0.168495	-3.20708	-0.198358	1.00815	-0.0417342	0.257237	-0.140728	-0.219716	0.296937	0.115247	0	0	0.999896	-0.0786856	-0.0730172	2.11458	0.0445014	0	0	-0.24764	-0.120836	0.0217757	0.100047	-0.579647	1.06794	0.664974	0.745872	0	0	0.198513	-0.491888	0.310508	1.67556	1.28448	0	0
5.89476	0.0684923	-0.177478	-3.20372	-0.19786	1.00935	-0.0426729	0.251816	-0.150263	-0.221648	0.29596	0.114965	0	0	1.0013	-0.0637807	-0.0749122	2.11766	0.0183683	0	0	-0.253799	-0.129612	0.0173757	0.0969747	-0.578923	1.06206	0.667261	0.748073	0	0	0.199201	-0.490291	0.310184	1.67242	1.2889	0	0
5.90475	0.0636941	-0.184746	-3.20042	-0.197302	1.01036	-0.0435839	0.246705	-0.158051	-0.22403	0.295167	0.11476	0	0	1.00495	-0.0507834	-0.0758993	2.11941	-0.0102197	0	0	-0.259171	-0.136498	0.0138561	0.0949752	-0.578973	1.05895	0.669794	0.750402	0	0	0.200501	-0.488478	0.310138	1.66935	1.29398	0	0
5.91474	0.0594858	-0.189963	-3.1973	-0.196665	1.01112	-0.0444694	0.242294	-0.163694	-0.226732	0.294817	0.114811	0	0	1.01146	-0.0401604	-0.0756533	2.12044	-0.0404306	0	0	-0.263496	-0.14115	0.0117342	0.0934296	-0.579955	1.05706	0.672848	0.753158	0	0	0.202555	-0.486365	0.310728	1.66649	1.29832	0	0
5.92473	0.056061	-0.192824	-3.19442	-0.195934	1.01161	-0.0453288	0.238889	-0.166829	-0.229705	0.295096	0.115259	0	0	1.02125	-0.032243	-0.0738293	2.12115	-0.0713729	0	0	-0.266557	-0.14324	0.0113007	0.0919713	-0.581981	1.05542	0.676601	0.756499	0	0	0.205328	-0.483902	0.312059	1.66404	1.30129	0	0
5.93472	0.0535674	-0.193064	-3.19174	-0.195106	1.01179	-0.0461588	0.236688	-0.167151	-0.232989	0.296111	0.116204	0	0	1.03463	-0.0272166	-0.0700695	2.12166	-0.102139	0	0	-0.268203	-0.142465	0.0126415	0.0904444	-0.585127	1.0535	0.681158	0.760577	0	0	0.208656	-0.481074	0.314065	1.66227	1.3028	0	0
5.94472	0.0519832	-0.190716	-3.18919	-0.194187	1.01169	-0.0469574	0.235663	-0.164696	-0.23664	0.297868	0.117638	0	0	1.05152	-0.0249483	-0.0642947	2.12182	-0.132097	0	0	-0.268456	-0.138852	0.015555	0.0889592	-0.589314	1.05129	0.686414	0.765438	0	0	0.212279	-0.477951	0.316506	1.66137	1.30309	0	0
5.95471	0.0511011	-0.186129	-3.18667	-0.193193	1.01131	-0.0477241	0.235545	-0.15987	-0.240733	0.300267	0.119452	0	0	1.07156	-0.0249742	-0.0567204	2.12121	-0.161033	0	0	-0.267542	-0.132779	0.0195118	0.0879608	-0.5943	1.04946	0.692021	0.77092	0	0	0.215825	-0.4747	0.318911	1.6615	1.30296	0	0
5.9647	0.0505978	-0.179849	-3.18399	-0.19215	1.01074	-0.0484575	0.235888	-0.153306	-0.245392	0.303117	0.121455	0	0	1.0941	-0.0265898	-0.0477265	2.11916	-0.189187	0	0	-0.265823	-0.124824	0.0236774	0.0882573	-0.599721	1.04943	0.697438	0.776581	0	0	0.218787	-0.471559	0.320553	1.66288	1.30384	0	0
5.97469	0.050188	-0.172345	-3.18089	-0.191077	1.01002	-0.0491526	0.23623	-0.145559	-0.250856	0.306168	0.123442	0	0	1.11842	-0.0290524	-0.0375772	2.11471	-0.21705	0	0	-0.263672	-0.115454	0.0270045	0.0910104	-0.605218	1.05346	0.70204	0.781667	0	0	0.220499	-0.468789	0.320437	1.66583	1.30798	0	0
5.98468	0.0495461	-0.16433	-3.17731	-0.189984	1.00923	-0.0498203	0.23625	-0.137406	-0.257009	0.309358	0.125381	0	0	1.14361	-0.0316872	-0.0269425	2.10665	-0.245274	0	0	-0.261558	-0.105475	0.0290801	0.0964418	-0.610357	1.06152	0.705515	0.785484	0	0	0.220922	-0.466535	0.318374	1.6703	1.31575	0	0
